<svg width="58" height="15" viewBox="0 0 58 15" fill="none" xmlns="http://www.w3.org/2000/svg">
<path d="M12.7634 3.58202C13.9298 4.79838 15.1628 6.49795 16.5958 7.28109C16.5791 7.29775 16.6124 7.26443 16.5958 7.28109C16.6124 7.29775 16.5791 7.26443 16.5958 7.28109C15.1628 8.06423 13.9131 9.76382 12.7634 10.9802C11.0305 12.8131 9.3809 14.5293 7.08147 14.5293C5.5985 14.5293 4.33214 13.5962 3.88225 12.1299C3.39903 10.5803 3.96557 8.98068 5.34856 8.01425L5.78178 7.81431C5.39854 7.78098 4.99864 7.79763 4.6154 7.84762C4.31548 7.88095 4.01555 7.9476 3.71562 8.01425C2.33263 8.4808 1.0163 9.59719 -0.000111276 10.6636C0.266489 9.86379 0.399773 8.36416 0.399773 7.26443C0.399773 6.16471 0.266489 4.64841 -0.000111276 3.86527C0.999641 4.91501 2.31597 6.04807 3.71562 6.51462C3.99889 6.58127 4.29882 6.64792 4.59875 6.68124C4.99865 6.73123 5.38188 6.73123 5.78178 6.6979L5.34856 6.51462C3.98223 5.56485 3.39903 3.9486 3.88225 2.39898C4.33214 0.949339 5.5985 -0.000429469 7.08147 -0.000429469C9.3809 0.0328956 11.0305 1.74914 12.7634 3.58202Z" fill="url(#paint0_linear_2851_7342)" fill-opacity="0.24"/>
<path d="M44.4378 3.58202C43.2714 4.79838 42.0384 6.49795 40.6054 7.28109C40.6221 7.29775 40.5887 7.26443 40.6054 7.28109C40.5887 7.29775 40.6221 7.26443 40.6054 7.28109C42.0384 8.06423 43.2881 9.76382 44.4378 10.9802C46.1707 12.8131 47.8203 14.5293 50.1197 14.5293C51.6027 14.5293 52.869 13.5962 53.3189 12.1299C53.8021 10.5803 53.2356 8.98068 51.8526 8.01425L51.4194 7.81431C51.8026 7.78098 52.2025 7.79763 52.5858 7.84762C52.8857 7.88095 53.1856 7.9476 53.4855 8.01425C54.8685 8.4808 56.1849 9.59719 57.2013 10.6636C56.9347 9.86379 56.8014 8.36416 56.8014 7.26443C56.8014 6.16471 56.9347 4.64841 57.2013 3.86527C56.2015 4.91501 54.8852 6.04807 53.4855 6.51462C53.2023 6.58127 52.9024 6.64792 52.6024 6.68124C52.2025 6.73123 51.8193 6.73123 51.4194 6.6979L51.8526 6.51462C53.2189 5.56485 53.8021 3.9486 53.3189 2.39898C52.869 0.949339 51.6027 -0.000429469 50.1197 -0.000429469C47.8203 0.0328956 46.1707 1.74914 44.4378 3.58202Z" fill="url(#paint1_linear_2851_7342)" fill-opacity="0.24"/>
<defs>
<linearGradient id="paint0_linear_2851_7342" x1="16.6006" y1="7.26443" x2="-0.000110626" y2="7.26443" gradientUnits="userSpaceOnUse">
<stop stop-color="#FDC830"/>
<stop offset="1" stop-color="#F37335"/>
</linearGradient>
<linearGradient id="paint1_linear_2851_7342" x1="40.6006" y1="7.26443" x2="57.2013" y2="7.26443" gradientUnits="userSpaceOnUse">
<stop stop-color="#FDC830"/>
<stop offset="1" stop-color="#F37335"/>
</linearGradient>
</defs>
</svg>
